<svg xmlns="http://www.w3.org/2000/svg" viewBox="0 0 1024 1024">
  <defs>
    <linearGradient id="bg" x1="0" y1="0" x2="1024" y2="1024" gradientUnits="userSpaceOnUse"><stop offset="0" stop-color="#241040"/><stop offset="1" stop-color="#0a0612"/></linearGradient>
    <linearGradient id="mark" x1="232" y1="232" x2="792" y2="792" gradientUnits="userSpaceOnUse"><stop offset="0" stop-color="#f3e8ff"/><stop offset="1" stop-color="#a855f7"/></linearGradient>
    <radialGradient id="glow" cx="512" cy="512" r="420" gradientUnits="userSpaceOnUse"><stop offset="0" stop-color="#a855f7" stop-opacity="0.28"/><stop offset="1" stop-color="#a855f7" stop-opacity="0"/></radialGradient>
  </defs>
  <rect width="1024" height="1024" fill="url(#bg)"/>
  <rect width="1024" height="1024" fill="url(#glow)"/>
  <rect x="288" y="293" width="368" height="78" rx="39" fill="none" stroke="url(#mark)" stroke-width="32"/>
  <circle cx="348" cy="332" r="17" fill="url(#mark)"/>
  <path d="M 540 332 H 596" stroke="url(#mark)" stroke-width="20" stroke-linecap="round"/>
  <rect x="288" y="433" width="368" height="78" rx="39" fill="none" stroke="url(#mark)" stroke-width="32"/>
  <circle cx="348" cy="472" r="17" fill="url(#mark)"/>
  <path d="M 540 472 H 596" stroke="url(#mark)" stroke-width="20" stroke-linecap="round"/>
  <rect x="288" y="573" width="368" height="78" rx="39" fill="none" stroke="url(#mark)" stroke-width="32"/>
  <circle cx="348" cy="612" r="17" fill="url(#mark)"/>
  <path d="M 540 612 H 596" stroke="url(#mark)" stroke-width="20" stroke-linecap="round"/>
  <circle cx="736" cy="736" r="132" fill="url(#mark)" stroke="url(#bg)" stroke-width="36"/>
  <path transform="translate(736 736)" d="M 40 -48 C 30 -74 -42 -76 -42 -36 C -42 -4 42 -6 42 32 C 42 74 -30 76 -44 46" fill="none" stroke="#0a0612" stroke-width="30" stroke-linecap="round" stroke-linejoin="round"/>
</svg>
